<svg width="670" height="530" viewBox="0 0 670 530" fill="none" xmlns="http://www.w3.org/2000/svg">
<g filter="url(#filter0_dd)">
<path d="M259.447 295.489C262.334 293.834 262.342 291.14 259.465 289.479L190.745 249.807C187.883 248.155 183.244 248.15 180.371 249.797L138.233 273.953C135.346 275.608 135.338 278.302 138.215 279.963L206.935 319.635C209.797 321.288 214.436 321.292 217.309 319.645L259.447 295.489Z" fill="url(#paint0_linear)"/>
</g>
<path d="M167.085 274.131L169.285 275.401L180.925 271.641L174.429 278.371L176.612 279.631L192.027 274.951L189.88 273.711L177.894 277.631L184.666 270.701L182.553 269.481L170.567 273.401L177.339 266.471L175.192 265.232L167.085 274.131ZM184.884 284.706C186.339 285.546 187.864 285.766 189.059 285.756L188.123 286.276L190.011 287.366L198.966 282.196L197.113 281.127L196.247 281.627C196.247 280.907 195.658 279.987 194.359 279.237C191.622 277.657 187.552 277.767 184.936 279.277C182.321 280.787 182.148 283.126 184.884 284.706ZM186.686 283.826C185.006 282.856 185.127 281.327 186.824 280.347C188.522 279.367 191.155 279.307 192.835 280.277C194.498 281.237 194.688 282.646 192.748 283.766C190.791 284.896 188.349 284.786 186.686 283.826ZM194.495 290.255C197.007 291.705 199.38 291.515 200.748 290.725C202.099 289.945 202.013 289.215 201.51 288.125C200.869 286.715 200.575 286.325 201.147 285.995C201.614 285.725 202.359 285.775 203.364 286.355C204.264 286.875 204.68 287.555 204.697 288.005L206.533 286.945C206.36 286.545 205.893 285.895 204.801 285.265C203.173 284.325 200.869 284.115 199.345 284.995C197.856 285.855 198.358 286.805 198.878 287.865C199.345 288.815 199.553 289.395 198.895 289.775C198.306 290.115 197.336 289.975 196.141 289.285C194.686 288.445 194.53 287.175 194.53 287.175L192.694 288.235C192.694 288.235 192.971 289.375 194.495 290.255ZM219.949 293.99C218.251 293.01 216.623 292.87 215.428 293.08C215.826 292.19 215.341 291.33 214.077 290.6C212.276 289.56 210.561 289.85 210.214 289.93L211.288 289.31L209.418 288.23L200.463 293.4L202.333 294.48L207.72 291.37C209.314 290.61 211.098 290.8 212.137 291.4C213.367 292.11 213.072 292.88 211.635 293.71L206.317 296.78L208.188 297.859L213.228 294.95C214.908 293.98 216.883 294.14 218.009 294.79C219.239 295.5 218.944 296.27 217.507 297.1L212.189 300.169L214.06 301.249L219.568 298.069C222.027 296.65 221.958 295.15 219.949 293.99ZM227.958 297.454C228.564 297.804 229.5 297.804 230.089 297.464C230.695 297.114 230.695 296.574 230.089 296.224C229.5 295.884 228.564 295.884 227.958 296.234C227.369 296.574 227.369 297.114 227.958 297.454ZM216.873 302.873L218.743 303.953L227.716 298.773L225.845 297.694L216.873 302.873Z" fill="white"/>
<defs>
<filter id="filter0_dd" x="104.062" y="232.565" width="189.555" height="136.313" filterUnits="userSpaceOnUse" color-interpolation-filters="sRGB">
<feFlood flood-opacity="0" result="BackgroundImageFix"/>
<feColorMatrix in="SourceAlpha" type="matrix" values="0 0 0 0 0 0 0 0 0 0 0 0 0 0 0 0 0 0 127 0"/>
<feOffset dy="16"/>
<feGaussianBlur stdDeviation="16"/>
<feColorMatrix type="matrix" values="0 0 0 0 0.541176 0 0 0 0 0.533333 0 0 0 0 1 0 0 0 0.32 0"/>
<feBlend mode="normal" in2="BackgroundImageFix" result="effect1_dropShadow"/>
<feColorMatrix in="SourceAlpha" type="matrix" values="0 0 0 0 0 0 0 0 0 0 0 0 0 0 0 0 0 0 127 0"/>
<feOffset dy="6"/>
<feColorMatrix type="matrix" values="0 0 0 0 0.0784314 0 0 0 0 0.0745098 0 0 0 0 0.239216 0 0 0 1 0"/>
<feBlend mode="normal" in2="effect1_dropShadow" result="effect2_dropShadow"/>
<feBlend mode="normal" in="SourceGraphic" in2="effect2_dropShadow" result="shape"/>
</filter>
<linearGradient id="paint0_linear" x1="225.123" y1="269.654" x2="187.309" y2="335.155" gradientUnits="userSpaceOnUse">
<stop stop-color="#8A88FF"/>
<stop offset="1" stop-color="#0500FF"/>
</linearGradient>
</defs>
</svg>
